# Blender 3.5.0
# www.blender.org
mtllib Suspension01.mtl
o polySurface1760
v -0.549950 0.111736 -0.043574
v -0.467494 0.544652 -0.043946
v -0.436166 0.538835 -0.030913
v -0.581159 0.117553 -0.030258
v -0.498702 0.550469 -0.030631
v -0.593967 0.119962 0.001604
v -0.511510 0.552878 0.001232
v -0.580872 0.117553 0.033350
v -0.498415 0.550469 0.032978
v -0.549544 0.111736 0.046383
v -0.467087 0.544652 0.046011
v -0.518336 0.105919 0.033068
v -0.435879 0.538835 0.032696
v -0.423071 0.536426 0.000833
v -0.505528 0.103510 0.001205
v -0.518623 0.105919 -0.030541
v -0.549950 0.111736 -0.043574
v -0.581159 0.117553 -0.030258
v -0.549747 0.111736 0.001405
v -0.593967 0.119962 0.001604
v -0.580872 0.117553 0.033350
v -0.518336 0.105919 0.033068
v -0.549544 0.111736 0.046383
v -0.505528 0.103510 0.001205
v -0.518623 0.105919 -0.030541
v -0.436166 0.538835 -0.030913
v -0.467494 0.544652 -0.043946
v -0.498702 0.550469 -0.030631
v -0.511510 0.552878 0.001232
v -0.498415 0.550469 0.032978
v -0.467087 0.544652 0.046011
v -0.435879 0.538835 0.032696
v -0.423071 0.536426 0.000833
v -0.467291 0.544652 0.001032
v -0.593967 0.119962 0.001604
v -0.593967 0.119962 0.001604
v -0.581159 0.117553 -0.030258
v -0.580872 0.117553 0.033350
v -0.549950 0.111736 -0.043574
v -0.549544 0.111736 0.046383
v -0.549544 0.111736 0.046383
v -0.518623 0.105919 -0.030541
v -0.518336 0.105919 0.033068
v -0.518336 0.105919 0.033068
v -0.505528 0.103510 0.001205
v -0.511510 0.552878 0.001232
v -0.498702 0.550469 -0.030631
v -0.498702 0.550469 -0.030631
v -0.498415 0.550469 0.032978
v -0.498415 0.550469 0.032978
v -0.467494 0.544652 -0.043946
v -0.467494 0.544652 -0.043946
v -0.467087 0.544652 0.046011
v -0.436166 0.538835 -0.030913
v -0.435879 0.538835 0.032696
v -0.423071 0.536426 0.000833
v -0.423071 0.536426 0.000833
vn 0.3718 -0.0716 -0.9256
vn -0.3801 0.0716 -0.9222
vn -0.9093 0.1729 -0.3786
vn -0.9058 0.1729 0.3868
vn -0.3718 0.0716 0.9256
vn 0.3801 -0.0716 0.9222
vn 0.9093 -0.1729 0.3786
vn 0.9058 -0.1729 -0.3868
vn -0.1829 -0.9831 0.0008
vn 0.1829 0.9831 -0.0008
vt 0.916018 0.005503
vt 0.916017 0.237676
vt 0.953941 0.237645
vt 0.953935 0.005533
vt 0.953937 0.237706
vt 0.916022 0.005546
vt 0.916022 0.237719
vt 0.953942 0.005533
vt 0.953942 0.237706
vt 0.916018 0.005503
vt 0.916019 0.237676
vt 0.953940 0.005472
vt 0.953940 0.237645
vt 0.916024 0.237632
vt 0.916024 0.005459
vt 0.953941 0.005472
vt 0.513807 0.587396
vt 0.502900 0.613727
vt 0.476571 0.587396
vt 0.450240 0.613727
vt 0.476571 0.550159
vt 0.502900 0.561066
vt 0.450215 0.561044
vt 0.476546 0.624612
vt 0.513782 0.587375
vt 0.502876 0.561044
vt 0.476546 0.587375
vt 0.916022 0.005546
vt 0.476571 0.624633
vt 0.953935 0.005533
vt 0.953942 0.005533
vt 0.916018 0.005503
vt 0.916018 0.005503
vt 0.439334 0.587396
vt 0.953941 0.005472
vt 0.953940 0.005472
vt 0.450240 0.561066
vt 0.916024 0.005459
vt 0.916022 0.237719
vt 0.953937 0.237706
vt 0.450215 0.613705
vt 0.953942 0.237706
vt 0.502876 0.613705
vt 0.916017 0.237676
vt 0.439309 0.587375
vt 0.916019 0.237676
vt 0.953941 0.237645
vt 0.953940 0.237645
vt 0.916024 0.237632
vt 0.476546 0.550138
s 1
usemtl shassis_1_0
f 16/16/1 1/1/1 3/3/1
f 1/1/1 2/2/1 3/3/1
f 39/32/2 4/4/2 51/44/2
f 4/4/2 5/5/2 51/44/2
f 37/30/3 6/6/3 47/40/3
f 6/6/3 7/7/3 47/40/3
f 35/28/4 8/8/4 46/39/4
f 8/8/4 9/9/4 46/39/4
f 38/31/5 10/10/5 49/42/5
f 10/10/5 11/11/5 49/42/5
f 40/33/6 12/12/6 53/46/6
f 12/12/6 13/13/6 53/46/6
f 43/36/7 15/15/7 55/48/7
f 15/15/7 14/14/7 55/48/7
f 45/38/8 42/35/8 56/49/8
f 42/35/8 54/47/8 56/49/8
f 17/17/9 25/22/9 19/19/9
f 18/18/9 17/17/9 19/19/9
f 36/29/9 18/18/9 19/19/9
f 21/20/9 36/29/9 19/19/9
f 41/34/9 21/20/9 19/19/9
f 44/37/9 41/34/9 19/19/9
f 24/21/9 44/37/9 19/19/9
f 25/22/9 24/21/9 19/19/9
f 26/23/10 52/45/10 34/27/10
f 52/45/10 48/41/10 34/27/10
f 48/41/10 29/24/10 34/27/10
f 29/24/10 50/43/10 34/27/10
f 50/43/10 31/25/10 34/27/10
f 31/25/10 32/26/10 34/27/10
f 32/26/10 57/50/10 34/27/10
f 57/50/10 26/23/10 34/27/10
o polySurface1759
v -0.616399 -0.237887 -0.069440
v -0.543978 0.150645 -0.069767
v -0.494429 0.141426 -0.049153
v -0.665760 -0.228668 -0.048379
v -0.593339 0.159863 -0.048706
v -0.686017 -0.224850 0.002020
v -0.613597 0.163681 0.001693
v -0.665305 -0.228668 0.052234
v -0.592884 0.159863 0.051907
v -0.615756 -0.237887 0.072849
v -0.543336 0.150645 0.072521
v -0.566396 -0.247105 0.051787
v -0.493975 0.141426 0.051460
v -0.473717 0.137608 0.001061
v -0.546138 -0.250924 0.001388
v -0.566850 -0.247105 -0.048826
v -0.616399 -0.237887 -0.069440
v -0.665760 -0.228668 -0.048379
v -0.616078 -0.237887 0.001704
v -0.686017 -0.224850 0.002020
v -0.665305 -0.228668 0.052234
v -0.566396 -0.247105 0.051787
v -0.615756 -0.237887 0.072849
v -0.546138 -0.250924 0.001388
v -0.566850 -0.247105 -0.048826
v -0.494429 0.141426 -0.049153
v -0.543978 0.150645 -0.069767
v -0.593339 0.159863 -0.048706
v -0.613597 0.163681 0.001693
v -0.592884 0.159863 0.051907
v -0.543336 0.150645 0.072521
v -0.493975 0.141426 0.051460
v -0.473717 0.137608 0.001061
v -0.543657 0.150645 0.001377
v -0.686017 -0.224850 0.002020
v -0.686017 -0.224850 0.002020
v -0.665760 -0.228668 -0.048379
v -0.665305 -0.228668 0.052234
v -0.665305 -0.228668 0.052234
v -0.616399 -0.237887 -0.069440
v -0.616399 -0.237887 -0.069440
v -0.615756 -0.237887 0.072849
v -0.615756 -0.237887 0.072849
v -0.566850 -0.247105 -0.048826
v -0.566396 -0.247105 0.051787
v -0.566396 -0.247105 0.051787
v -0.613597 0.163681 0.001693
v -0.546138 -0.250924 0.001388
v -0.593339 0.159863 -0.048706
v -0.593339 0.159863 -0.048706
v -0.593339 0.159863 -0.048706
v -0.592884 0.159863 0.051907
v -0.592884 0.159863 0.051907
v -0.543978 0.150645 -0.069767
v -0.543978 0.150645 -0.069767
v -0.543336 0.150645 0.072521
v -0.494429 0.141426 -0.049153
v -0.493975 0.141426 0.051460
v -0.473717 0.137608 0.001061
v -0.473717 0.137608 0.001061
vn 0.3720 -0.0701 -0.9256
vn -0.3804 0.0701 -0.9222
vn -0.9100 0.1693 -0.3786
vn -0.9065 0.1693 0.3868
vn -0.3720 0.0701 0.9256
vn 0.3804 -0.0701 0.9222
vn 0.9100 -0.1693 0.3786
vn 0.9065 -0.1693 -0.3868
vn -0.1832 -0.9831 0.0008
vn 0.1832 0.9831 -0.0008
vt 0.964149 0.247417
vt 0.964148 0.015244
vt 0.992685 0.015275
vt 0.992681 0.247387
vt 0.992682 0.015213
vt 0.964152 0.247374
vt 0.964152 0.015200
vt 0.992686 0.247387
vt 0.992686 0.015213
vt 0.964149 0.247417
vt 0.964149 0.015244
vt 0.992684 0.247448
vt 0.992684 0.015275
vt 0.964153 0.015287
vt 0.964153 0.247460
vt 0.992685 0.247448
vt 0.502900 0.613727
vt 0.476571 0.587396
vt 0.476571 0.550159
vt 0.502900 0.561066
vt 0.450215 0.561044
vt 0.476546 0.624612
vt 0.513782 0.587375
vt 0.502876 0.561044
vt 0.476546 0.587375
vt 0.964152 0.247374
vt 0.476571 0.624633
vt 0.992681 0.247387
vt 0.992686 0.247387
vt 0.450240 0.613727
vt 0.964149 0.247417
vt 0.513807 0.587396
vt 0.964149 0.247417
vt 0.439334 0.587396
vt 0.992685 0.247448
vt 0.992684 0.247448
vt 0.450240 0.561066
vt 0.964152 0.015200
vt 0.964153 0.247460
vt 0.992682 0.015213
vt 0.450215 0.613705
vt 0.992686 0.015213
vt 0.502876 0.613705
vt 0.964148 0.015244
vt 0.439309 0.587375
vt 0.964149 0.015244
vt 0.992685 0.015275
vt 0.992684 0.015275
vt 0.964153 0.015287
vt 0.476546 0.550138
s 1
usemtl shassis_1_0
f 73/66/11 58/51/11 60/53/11
f 58/51/11 59/52/11 60/53/11
f 97/81/12 61/54/12 111/94/12
f 61/54/12 62/55/12 111/94/12
f 94/78/13 63/56/13 106/90/13
f 63/56/13 64/57/13 106/90/13
f 92/76/14 65/58/14 104/88/14
f 65/58/14 66/59/14 104/88/14
f 95/79/15 67/60/15 109/92/15
f 67/60/15 68/61/15 109/92/15
f 99/83/16 69/62/16 113/96/16
f 69/62/16 70/63/16 113/96/16
f 102/86/17 72/65/17 115/98/17
f 72/65/17 71/64/17 115/98/17
f 105/89/18 101/85/18 116/99/18
f 101/85/18 114/97/18 116/99/18
f 98/82/19 82/70/19 76/68/19
f 75/67/19 98/82/19 76/68/19
f 93/77/19 75/67/19 76/68/19
f 96/80/19 93/77/19 76/68/19
f 100/84/19 96/80/19 76/68/19
f 103/87/19 100/84/19 76/68/19
f 81/69/19 103/87/19 76/68/19
f 82/70/19 81/69/19 76/68/19
f 83/71/20 112/95/20 91/75/20
f 112/95/20 108/91/20 91/75/20
f 108/91/20 86/72/20 91/75/20
f 86/72/20 110/93/20 91/75/20
f 110/93/20 88/73/20 91/75/20
f 88/73/20 89/74/20 91/75/20
f 89/74/20 117/100/20 91/75/20
f 117/100/20 83/71/20 91/75/20
o polySurface1749
v -0.674173 -0.311986 0.070152
v -0.453942 -0.349851 0.121004
v -0.620767 -0.308290 0.069910
v -0.441783 -0.246148 0.121369
v -0.620767 -0.308290 0.069910
v -0.453942 -0.349851 0.121004
v -0.674825 -0.311431 -0.065692
v -0.621419 -0.307736 -0.065933
v -0.442819 -0.245267 -0.094449
v -0.454978 -0.348970 -0.094814
v -0.453942 -0.349851 0.121004
v -0.674173 -0.311986 0.070152
v -0.454281 -0.349563 0.050432
v -0.674825 -0.311431 -0.065692
v -0.442819 -0.245267 -0.094449
v -0.621419 -0.307736 -0.065933
v -0.442487 -0.245549 -0.025343
v -0.441783 -0.246148 0.121369
v -0.620767 -0.308290 0.069910
v -0.442101 -0.245878 0.055099
v -0.454651 -0.349248 -0.026664
v -0.442487 -0.245549 -0.025343
v -0.454281 -0.349563 0.050432
v -0.442101 -0.245878 0.055099
v -0.076364 -0.265155 0.165285
v -0.160505 -0.164895 0.172122
v -0.442101 -0.245878 0.055099
v -0.454281 -0.349563 0.050432
v -0.454281 -0.349563 0.050432
v -0.076364 -0.265155 0.165285
v -0.453942 -0.349851 0.121004
v -0.076026 -0.265443 0.235857
v -0.076026 -0.265443 0.235857
v -0.160187 -0.165165 0.238392
v -0.442101 -0.245878 0.055099
v -0.441783 -0.246148 0.121369
v -0.160187 -0.165165 0.238392
v -0.078196 -0.263596 -0.216535
v -0.162358 -0.163319 -0.214001
v -0.454651 -0.349248 -0.026664
v -0.077870 -0.263874 -0.148385
v -0.454978 -0.348970 -0.094814
v -0.078196 -0.263596 -0.216535
v -0.077870 -0.263874 -0.148385
v -0.162027 -0.163601 -0.144894
v -0.454651 -0.349248 -0.026664
v -0.442487 -0.245549 -0.025343
v -0.162027 -0.163601 -0.144894
v 0.002619 0.001617 0.154564
v -0.076364 -0.265155 0.165285
v -0.160505 -0.164895 0.172122
v -0.115458 -0.021751 0.157968
v 0.002619 0.001617 0.154564
v 0.002957 0.001329 0.225135
v 0.002957 0.001329 0.225135
v -0.076026 -0.265443 0.235857
v -0.115140 -0.022022 0.224238
v -0.160187 -0.165165 0.238392
v -0.160505 -0.164895 0.172122
v -0.115140 -0.022022 0.224238
v -0.115458 -0.021751 0.157968
v 0.000784 0.003175 -0.227257
v -0.078196 -0.263596 -0.216535
v -0.117311 -0.020175 -0.228154
v -0.162358 -0.163319 -0.214001
v 0.000784 0.003175 -0.227257
v 0.001111 0.002897 -0.159107
v 0.001111 0.002897 -0.159107
v -0.077870 -0.263874 -0.148385
v -0.116979 -0.020457 -0.159048
v -0.162027 -0.163601 -0.144894
v -0.116979 -0.020457 -0.159048
v -0.162358 -0.163319 -0.214001
v -0.117311 -0.020175 -0.228154
v -0.454978 -0.348970 -0.094814
v -0.454651 -0.349248 -0.026664
v -0.454281 -0.349563 0.050432
v -0.453942 -0.349851 0.121004
v -0.442487 -0.245549 -0.025343
v -0.442487 -0.245549 -0.025343
v -0.160505 -0.164895 0.172122
v -0.160187 -0.165165 0.238392
v -0.078196 -0.263596 -0.216535
v -0.076364 -0.265155 0.165285
v -0.076026 -0.265443 0.235857
vn -0.0451 0.6979 0.7148
vn -0.3545 0.0383 0.9343
vn -0.2858 0.0301 0.9578
vn -0.3189 0.0040 0.9478
vn -0.0365 0.4702 -0.8818
vn -0.0594 0.4006 -0.9143
vn -0.2561 0.0200 -0.9664
vn -0.3189 0.0407 -0.9469
vn -0.1687 -0.9857 -0.0032
vn 0.0512 -0.9987 -0.0043
vn -0.3000 0.9539 0.0053
vn -0.3294 0.9442 0.0054
vn 0.9932 -0.1164 -0.0052
vn 0.2284 0.2557 -0.9394
vn 0.3466 0.0652 -0.9357
vn 0.2511 0.2215 -0.9423
vn 0.3846 -0.0036 -0.9231
vn 0.2194 -0.9756 -0.0050
vn 0.6515 -0.7586 -0.0062
vn -0.2375 -0.2232 0.9454
vn -0.2604 -0.1878 0.9471
vn -0.2784 0.9605 0.0053
vn -0.6679 0.7443 0.0062
vn -0.7389 0.6738 0.0063
vn -0.2611 -0.1953 -0.9453
vn -0.2820 -0.1625 -0.9455
vn 0.6388 -0.7693 -0.0062
vn 0.7323 -0.6810 -0.0063
vn 0.2631 0.1879 0.9463
vn 0.2840 0.1549 0.9462
vn 0.3721 0.0046 0.9282
vn 0.4060 -0.0592 0.9119
vn -0.6432 0.7656 0.0062
vn -0.7603 0.6495 0.0063
vn -0.0222 -0.0336 -0.9992
vn -0.0888 -0.0442 -0.9951
vn -0.0495 -0.0379 -0.9981
vn -0.1431 -0.0527 -0.9883
vn 0.9588 -0.2841 -0.0058
vn -0.0165 0.0450 0.9988
vn 0.0112 0.0495 0.9987
vn 0.0512 0.0558 0.9971
vn 0.1067 0.0645 0.9922
vn -0.9537 0.3007 0.0058
vn 0.0165 -0.0450 -0.9988
vn -0.0512 -0.0558 -0.9971
vn -0.0112 -0.0495 -0.9987
vn -0.1067 -0.0645 -0.9922
vn -0.0079 0.0425 0.9991
vn 0.0197 0.0469 0.9987
vn 0.0596 0.0532 0.9968
vn 0.1149 0.0619 0.9915
vt 0.954358 0.498609
vt 0.924073 0.411272
vt 0.953715 0.480800
vt 0.923653 0.434679
vt 0.922552 0.380330
vt 0.955778 0.427272
vt 0.955736 0.359703
vt 0.922552 0.380330
vt 0.923653 0.434679
vt 0.955778 0.427272
vt 0.872289 0.258382
vt 0.888288 0.343837
vt 0.937185 0.256967
vt 0.954080 0.341485
vt 0.937185 0.256967
vt 0.921740 0.342634
vt 0.855647 0.344972
vt 0.872289 0.258382
vt 0.886309 0.343885
vt 0.955778 0.427272
vt 0.923653 0.434679
vt 0.955778 0.427272
vt 0.923653 0.434679
vt 0.958412 0.533152
vt 0.925465 0.520122
vt 0.923653 0.434679
vt 0.955778 0.427272
vt 0.956781 0.464942
vt 0.921729 0.342653
vt 0.924344 0.465698
vt 0.958412 0.533152
vt 0.925465 0.520122
vt 0.954085 0.341485
vt 0.921740 0.342634
vt 0.924347 0.465782
vt 0.958412 0.533152
vt 0.925465 0.520122
vt 0.921734 0.342653
vt 0.924339 0.465378
vt 0.956746 0.464612
vt 0.958412 0.533152
vt 0.925465 0.520122
vt 0.955778 0.427272
vt 0.923653 0.434679
vt 0.924345 0.465547
vt 0.959065 0.577477
vt 0.925953 0.546148
vt 0.959533 0.592924
vt 0.927078 0.593686
vt 0.959065 0.577477
vt 0.956992 0.458098
vt 0.925953 0.546148
vt 0.956742 0.465029
vt 0.926064 0.546209
vt 0.958476 0.545455
vt 0.959065 0.577477
vt 0.925953 0.546148
vt 0.924434 0.473852
vt 0.959503 0.593088
vt 0.927078 0.593849
vt 0.959065 0.577477
vt 0.956992 0.458098
vt 0.925953 0.546148
vt 0.924434 0.473852
vt 0.925657 0.527093
vt 0.956770 0.464787
vt 0.958082 0.526337
vt 0.954080 0.341509
vt 0.921734 0.342653
vt 0.954123 0.341508
vt 0.855642 0.344991
vt 0.921740 0.342634
vt 0.924434 0.473852
vt 0.924434 0.473852
vt 0.956992 0.458098
vt 0.956992 0.458098
vt 0.924344 0.465698
s 1
usemtl shassis_1_0
f 118/101/21 119/102/21 120/103/21
f 121/104/22 122/105/23 123/106/24
f 124/107/25 125/108/26 127/110/27
f 125/108/26 126/109/28 127/110/27
f 195/171/29 129/111/29 130/112/29
f 192/168/30 157/138/29 131/113/29
f 131/113/29 157/138/29 129/111/29
f 130/112/29 129/111/29 157/138/29
f 132/114/31 133/115/32 134/116/32
f 135/117/32 137/119/32 136/118/32
f 136/118/32 137/119/32 133/115/32
f 134/116/32 133/115/32 137/119/32
f 138/120/33 139/121/33 140/122/33
f 139/121/33 141/123/33 140/122/33
f 142/124/34 145/127/35 143/125/36
f 144/126/37 143/125/36 145/127/35
f 194/170/38 147/128/39 148/129/38
f 148/129/38 147/128/39 149/130/38
f 150/131/40 151/132/41 123/106/24
f 123/106/24 151/132/41 121/104/22
f 152/133/42 153/134/42 176/153/43
f 153/134/42 154/135/44 176/153/43
f 155/136/45 127/110/27 156/137/46
f 126/109/28 156/137/46 127/110/27
f 193/169/38 192/168/30 158/139/47
f 192/168/30 160/140/48 158/139/47
f 161/141/49 162/142/50 163/143/51
f 163/143/51 162/142/50 164/144/52
f 197/172/42 165/145/53 132/114/31
f 132/114/31 165/145/53 190/166/54
f 166/146/55 201/176/56 169/147/57
f 198/173/58 169/147/57 201/176/56
f 147/128/39 170/148/59 202/177/59
f 202/177/59 170/148/59 171/149/59
f 172/150/60 174/152/61 173/151/62
f 173/151/62 174/152/61 199/174/63
f 154/135/44 177/154/64 176/153/43
f 176/153/43 177/154/64 178/155/64
f 179/156/65 200/175/66 181/157/67
f 182/158/68 181/157/67 200/175/66
f 160/140/48 183/159/59 158/139/47
f 158/139/47 183/159/59 184/160/59
f 185/161/69 187/163/70 186/162/71
f 186/162/71 187/163/70 188/164/72
f 165/145/53 189/165/64 190/166/54
f 190/166/54 189/165/64 191/167/64
o polySurface1750
v -0.670372 -0.083947 -0.090091
v -0.731494 -0.146860 -0.138360
v -0.731245 -0.147064 -0.089144
v -0.679315 -0.332271 0.142273
v -0.680699 -0.331084 -0.139368
v -0.488944 -0.262373 0.141413
v -0.490613 -0.261292 -0.140156
v -0.490613 -0.261292 -0.140156
v -0.680699 -0.331084 -0.139368
v -0.698717 -0.282005 -0.139073
v -0.680699 -0.331084 -0.139368
v -0.698717 -0.282005 -0.139073
v -0.697334 -0.283191 0.142568
v -0.679315 -0.332271 0.142273
v -0.698476 -0.282212 -0.089858
v -0.697569 -0.282990 0.094701
v -0.679315 -0.332271 0.142273
v -0.488944 -0.262373 0.141413
v -0.506963 -0.213294 0.141708
v -0.488944 -0.262373 0.141413
v -0.506963 -0.213294 0.141708
v -0.507264 -0.213099 0.090866
v -0.508632 -0.212213 -0.139861
v -0.508351 -0.212394 -0.092510
v -0.490613 -0.261292 -0.140156
v -0.730066 -0.148030 0.143281
v -0.730309 -0.147831 0.095414
v -0.508351 -0.212394 -0.092510
v -0.507264 -0.213099 0.090866
v -0.698476 -0.282212 -0.089858
v -0.697569 -0.282990 0.094701
v -0.508632 -0.212213 -0.139861
v -0.571133 -0.087981 -0.139013
v -0.673325 -0.084740 -0.138434
v -0.731494 -0.146860 -0.138360
v -0.731494 -0.146860 -0.138360
v -0.731245 -0.147064 -0.089144
v -0.698717 -0.282005 -0.139073
v -0.698476 -0.282212 -0.089858
v -0.698476 -0.282212 -0.089858
v -0.508351 -0.212394 -0.092510
v -0.731245 -0.147064 -0.089144
v -0.670372 -0.083947 -0.090091
v -0.570852 -0.088163 -0.091662
v -0.508351 -0.212394 -0.092510
v -0.570852 -0.088163 -0.091662
v -0.508632 -0.212213 -0.139861
v -0.571133 -0.087981 -0.139013
v -0.507264 -0.213099 0.090866
v -0.697569 -0.282990 0.094701
v -0.569765 -0.088867 0.091713
v -0.673627 -0.086250 0.094019
v -0.730309 -0.147831 0.095414
v -0.730309 -0.147831 0.095414
v -0.697569 -0.282990 0.094701
v -0.730066 -0.148030 0.143281
v -0.697334 -0.283191 0.142568
v -0.697334 -0.283191 0.142568
v -0.730066 -0.148030 0.143281
v -0.669417 -0.085000 0.143164
v -0.569464 -0.089063 0.142556
v -0.506963 -0.213294 0.141708
v -0.569464 -0.089063 0.142556
v -0.507264 -0.213099 0.090866
v -0.569765 -0.088867 0.091713
v -0.673325 -0.084740 -0.138434
v -0.571133 -0.087981 -0.139013
v -0.570852 -0.088163 -0.091662
v -0.673627 -0.086250 0.094019
v -0.569765 -0.088867 0.091713
v -0.669417 -0.085000 0.143164
v -0.569464 -0.089063 0.142556
v -0.698717 -0.282005 -0.139073
v -0.698717 -0.282005 -0.139073
v -0.697569 -0.282990 0.094701
v -0.673627 -0.086250 0.094019
v -0.673627 -0.086250 0.094019
v -0.673325 -0.084740 -0.138434
v -0.670372 -0.083947 -0.090091
v -0.670372 -0.083947 -0.090091
v -0.669417 -0.085000 0.143164
v -0.669417 -0.085000 0.143164
v -0.488944 -0.262373 0.141413
v -0.508632 -0.212213 -0.139861
v -0.506963 -0.213294 0.141708
v -0.506963 -0.213294 0.141708
vn -0.7192 0.6941 0.0325
vn -0.7227 0.6907 0.0241
vn -0.7264 0.6871 0.0151
vn -0.7299 0.6835 0.0065
vn 0.3446 -0.9387 -0.0056
vn -0.0056 0.0040 -1.0000
vn -0.9387 -0.3447 0.0032
vn 0.0059 -0.0038 1.0000
vn 0.9387 0.3447 -0.0042
vn -0.7198 0.6927 0.0441
vn -0.7250 0.6880 0.0322
vn -0.7305 0.6827 0.0192
vn -0.7357 0.6773 0.0065
vn -0.3446 0.9387 0.0056
vn -0.0055 0.0039 -1.0000
vn -0.9718 -0.2357 0.0039
vn -0.9718 -0.2357 0.0038
vn 0.0146 -0.0017 0.9999
vn 0.0151 -0.0003 0.9999
vn 0.0149 -0.0007 0.9999
vn 0.0154 0.0006 0.9999
vn 0.0158 0.0011 0.9999
vn 0.8933 0.4494 -0.0036
vn -0.0191 -0.0028 -0.9998
vn -0.0213 -0.0016 -0.9998
vn -0.0206 -0.0018 -0.9998
vn -0.0227 -0.0007 -0.9997
vn -0.0240 -0.0005 -0.9997
vn -0.9719 -0.2354 0.0040
vn -0.9719 -0.2354 0.0038
vn -0.9719 -0.2354 0.0039
vn 0.0316 0.9993 -0.0183
vn 0.0345 0.9993 -0.0123
vn 0.0393 0.9992 -0.0027
vn 0.0424 0.9991 0.0036
vn 0.0246 0.9993 -0.0275
vn 0.0292 0.9994 -0.0187
vn 0.0359 0.9993 -0.0055
vn 0.0406 0.9992 0.0036
vt 0.337135 0.936043
vt 0.360096 0.899216
vt 0.337154 0.899217
vt 0.473690 0.975533
vt 0.474597 0.865939
vt 0.389859 0.975418
vt 0.392110 0.865939
vt 0.324388 0.890051
vt 0.387993 0.890051
vt 0.387993 0.873628
vt 0.478397 0.838968
vt 0.503774 0.838968
vt 0.503774 0.975636
vt 0.478397 0.975636
vt 0.503774 0.865202
vt 0.503774 0.949874
vt 0.388310 0.890217
vt 0.324610 0.873795
vt 0.478477 0.838936
vt 0.503853 0.838936
vt 0.503853 0.861311
vt 0.503853 0.955193
vt 0.478477 0.975634
vt 0.337113 0.899301
vt 0.360088 0.899299
vt 0.415461 0.897864
vt 0.414685 0.937458
vt 0.458997 0.897962
vt 0.457676 0.936668
vt 0.324388 0.873628
vt 0.329368 0.830230
vt 0.359150 0.818210
vt 0.383026 0.830230
vt 0.386668 0.975494
vt 0.364237 0.975494
vt 0.386668 0.915963
vt 0.364237 0.915963
vt 0.458997 0.897962
vt 0.415461 0.897864
vt 0.458997 0.897962
vt 0.438894 0.897918
vt 0.415461 0.897864
vt 0.386693 0.915923
vt 0.386693 0.975490
vt 0.364231 0.915923
vt 0.364231 0.975490
vt 0.414685 0.937458
vt 0.457676 0.936668
vt 0.414685 0.937458
vt 0.438966 0.937012
vt 0.457676 0.936668
vt 0.386723 0.975494
vt 0.364299 0.975494
vt 0.364299 0.915962
vt 0.388310 0.873795
vt 0.383330 0.830397
vt 0.358622 0.818378
vt 0.329591 0.830397
vt 0.386691 0.915932
vt 0.386691 0.975491
vt 0.364322 0.915932
vt 0.364322 0.975491
vt 0.360096 0.934739
vt 0.360098 0.975391
vt 0.337113 0.975391
vt 0.360062 0.932822
vt 0.360029 0.975379
vt 0.337113 0.934737
vt 0.337113 0.975379
vt 0.387993 0.873628
vt 0.386723 0.915962
vt 0.360062 0.932822
vt 0.360096 0.934739
vt 0.337135 0.936043
vt 0.337113 0.934737
vt 0.324610 0.890217
vt 0.503853 0.975634
vt 0.324610 0.873795
s 1
usemtl shassis_1_0
f 203/178/73 268/240/74 205/180/75
f 268/240/74 204/179/76 205/180/75
f 206/181/77 207/182/77 208/183/77
f 209/184/77 208/183/77 207/182/77
f 210/185/78 211/186/78 234/207/78
f 234/207/78 211/186/78 212/187/78
f 213/188/79 216/191/79 214/189/79
f 214/189/79 216/191/79 217/192/79
f 215/190/79 218/193/79 216/191/79
f 217/192/79 216/191/79 218/193/79
f 219/194/80 285/253/80 260/232/80
f 260/232/80 285/253/80 221/195/80
f 222/196/81 227/200/81 223/197/81
f 223/197/81 227/200/81 224/198/81
f 286/254/81 226/199/81 227/200/81
f 224/198/81 227/200/81 226/199/81
f 273/245/82 271/243/83 228/201/84
f 271/243/83 229/202/85 228/201/84
f 230/203/86 232/205/86 231/204/86
f 231/204/86 232/205/86 233/206/86
f 234/207/78 276/247/78 235/208/78
f 235/208/78 276/247/78 236/209/87
f 236/209/87 276/247/78 237/210/87
f 238/211/88 240/213/89 239/212/88
f 240/213/89 241/214/89 239/212/88
f 242/215/90 243/216/91 244/217/92
f 244/217/92 243/216/91 245/218/93
f 245/218/93 243/216/91 246/219/94
f 247/220/95 249/222/95 248/221/95
f 248/221/95 249/222/95 250/223/95
f 251/224/96 252/225/97 253/226/98
f 253/226/98 252/225/97 254/227/99
f 254/227/99 252/225/97 255/228/100
f 256/229/101 277/248/102 258/230/103
f 277/248/102 259/231/102 258/230/103
f 260/232/80 288/255/80 261/233/80
f 261/233/80 288/255/80 262/234/80
f 262/234/80 288/255/80 263/235/80
f 264/236/95 266/238/95 265/237/95
f 265/237/95 266/238/95 267/239/95
f 280/250/104 282/251/105 269/241/106
f 269/241/106 282/251/105 270/242/107
f 279/249/108 284/252/109 272/244/110
f 272/244/110 284/252/109 274/246/111
